<svg xmlns="http://www.w3.org/2000/svg" viewBox="-1 -189 1008 1008"><path fill="currentColor" d="M0 20l-1 1C-1 5 3 1 19 1l283 47c8 1 13 5 14 12 3 5 2 10-3 15l-55 55 148 150c8 7 8 15 0 23L303 406c-8 7-15 7-23 0L132 256l-57 55c-4 4-9 5-16 4-4-3-7-7-10-12zM987 1V0c16 0 20 4 20 20l-47 283c-7 16-18 18-29 10l-55-55-150 148c-7 7-15 7-23 0L600 303c-7-8-7-16 0-23l150-148-55-57c-5-4-6-9-3-16 3-5 7-8 12-9zm20 987l1-1c0 16-4 20-20 20l-283-47c-7-1-12-5-15-12-1-5 0-10 4-15l55-55-148-150c-7-8-7-15 0-23l103-103c8-8 16-8 23 0l148 150 57-55c7-7 10-7 17-4 5 3 8 7 9 12zm-987 19h-1c-16 0-20-4-20-20l47-283c7-16 18-18 29-10l55 55 150-148c8-8 15-8 23 0l103 103c8 8 8 15 0 23L256 875l55 57c7 7 7 10 4 17-3 5-7 8-12 9z"/></svg>
