<svg xmlns="http://www.w3.org/2000/svg" viewBox="0 -168 1008 1008"><path fill="currentColor" d="M480 137l24 31 24-31c23-32 61-51 102-51 71 0 124 53 126 126 0 13-2 27-8 41h93c47 0 82 37 82 85v504c0 47-35 82-82 82H167c-47 0-82-35-82-82V338c0-48 35-85 82-85h93c-6-14-8-28-8-41 2-73 55-126 126-126 41 0 79 19 102 51zM293 460l89-122H167v504h296c0-54 82-54 82 0h296V338H626l89 122-67 49-126-171h-36L360 509zm85-292c-53 6-55 85 0 85s53-79 0-85zm252 0c-53 6-55 85 0 85s53-79 0-85zM504 672c53 6 55 85 0 85s-53-79 0-85zm0-126c53 6 55 85 0 85s-53-79 0-85zm0-126c53 6 55 85 0 85s-53-79 0-85z"/></svg>
