<svg xmlns="http://www.w3.org/2000/svg" viewBox="0 -145 1008 1008"><path fill="currentColor" d="M992 515c-36 44-105 99-210 141 111 378-270 438-264 245V717c-9-2-17-4-27-7 0 81-1 194-1 191 6 193-375 133-264-245-105-42-174-97-210-141-18-27 2-56 32-35 4 3 8 5 12 8V98c0-54 41-98 91-98h707c50 0 90 44 90 98v390c4-3 8-5 12-8 30-21 50 8 32 35zm-92 2V142c0-64-21-90-80-90H194c-62 0-80 22-80 90v379c134 70 248 57 310 55 27-1 43 5 54 15 1 2 3 3 5 5 12 11 23 20 35 29 2-31 19-51 66-49 63 3 180 15 316-59zM773 416c0 63-54 114-121 114s-122-51-122-114 55-113 122-113 121 50 121 113zm-282 0c0 63-54 114-121 114s-122-51-122-114 55-113 122-113 121 50 121 113z"/></svg>
