<svg xmlns="http://www.w3.org/2000/svg" viewBox="0 -168 1008 1008"><path fill="currentColor" d="M272 157h-2l8-6c63-48 141-65 226-65 81 0 152 19 217 59l9 8 14 11c-37-25-84-21-144 14-56 34-90 55-96 63-65-49-118-79-161-92-38-8-61-2-71 8zm541 63l-6-6c-17-17-33-22-51-20s-85 33-177 114c4 2 23 22 59 61 35 38 69 83 102 134 63 96 97 177 75 285 144-143 144-423-2-568zm-63 433l-39-50-49-59c-26-31-69-72-123-126l-35-35-142 146c-25 26-57 65-96 118-40 53-63 100-71 141-6 0-24-63 31-204 20-50 56-101 97-156s77-96 104-122c-2-2-43-43-98-81l-2-2c-28-15-55-25-83-27-29 2-45 20-47 22-71 76-113 175-112 287 1 120 43 219 122 297 78 79 177 121 297 122 124 1 232-51 311-136 0-1-4-59-65-135z"/></svg>
