<svg xmlns="http://www.w3.org/2000/svg" viewBox="0 -189 642 1008"><path fill="currentColor" d="M150 256c-20 0-30-9-30-26v-63c0-17 10-25 30-25s29 8 29 25v63c0 17-9 26-29 26zm342 0c-19 0-29-9-29-26v-63c0-17 10-25 29-25 20 0 30 8 30 25v63c0 17-10 26-30 26zm71-26v-31h67c8 0 12 4 12 12v130c0 8-4 13-12 13H12c-8 0-12-5-12-13V211c0-8 4-12 12-12h67v31c0 44 24 67 71 67 48 0 71-23 71-67v-31h200v31c0 44 24 67 71 67 48 0 71-23 71-67zM0 411c0-9 4-13 12-13h618c8 0 12 4 12 13v443c0 8-4 12-12 12H12c-8 0-12-4-12-12V411zm476 359c4 0 6-3 6-8V516c0-4-2-6-6-6h-29l-75 37c-3 3-4 5-4 6l6 44c0 3 1 5 4 5h6l33-13v173c0 5 2 8 6 8h53zm-324-8l1 1c17 8 37 12 62 12 66 0 110-33 110-87 0-27-16-48-50-61 28-15 41-34 41-61 0-34-32-60-87-60-29 0-54 3-71 14-3 3-4 5-4 6l5 43c0 3 1 4 4 4h6c16-8 32-12 48-12 20 0 29 6 29 18 0 15-15 24-47 25-4 1-6 3-6 6v44c0 3 2 5 6 6 40 1 59 11 59 31 0 17-12 26-39 26-23 0-42-3-58-10h-5c-1 1-2 2-2 3l-6 43c0 3 1 6 4 9z"/></svg>
