<svg xmlns="http://www.w3.org/2000/svg" viewBox="0 0 201.4 199" overflow="scroll"><style>.st0{fill:#fff}</style><path class="st0" d="M163 .1h-62.5V0H38.4C15.6 0 .1 15.4.1 38.2c0 40.7-.1 81.5-.1 122.2 0 23 15.4 38.5 38.4 38.5 41.5 0 83.1.1 124.6.1 22.8 0 38.3-15.4 38.3-38.2 0-40.8.1-81.5.1-122.3 0-23-15.4-38.4-38.4-38.4zm9 101.9c-.2 2.2-.6 4.2-1.3 6.2-3 7-7.2 13-12.2 18.6l-.2.2c-2.8 3.3-11.1 9.8-18.2 15.3-.6.4-1.2.8-1.7 1.3-5.4 4.1-9.8 7.3-9.8 7.3-7.6 5.4-15.4 10.3-23.5 14.9-3.2 1.8-6.5 4.2-10.6 2.4h-.2c2.3-4.1 2.2-8.6 2.4-13 0-.2 0-.3-.1-.5-.3-5-4.8-6-4.8-6-1.5-.6-3.2-.9-4.8-1.2-23.3-4.3-42.6-14.4-53.8-36.3-.9-2-1.6-4-2.2-5.7-.2-.8-.5-1.7-.7-2.5-1.7-6.7-2.3-13.5-.9-20.2C32 68.4 39.9 57.1 51.6 48.5c27.5-20.3 70.1-20.7 98-.1 12 8.9 20.4 20.2 22.8 35.3.9 6.1.3 12.2-.4 18.3z"/><path class="st0" d="M116.6 74c-2.2.8-2.5 2.8-2.5 4.8v15.8c-5-6.8-9.4-12.4-13.5-18.3-1.5-2.1-3.2-2.9-5.6-2.4-2.7.6-2.4 2.8-2.4 4.7-.1 8.8 0 17.5 0 26.3 0 2.8.7 5.1 4 5.1 3.2-.1 4-2.3 4-5.1-.1-4.8 0-9.7 0-14.5.3-.1.5-.2.8-.3 4.4 5.9 8.9 11.8 13.3 17.8 1.2 1.7 2.7 2.4 4.7 2 2.2-.5 2.8-2.1 2.8-4.1 0-9.3.1-18.6 0-27.9-.1-3.5-2.5-5.1-5.6-3.9zM137.5 95.7c2.6.2 5.2 0 7.8 0 1.7 0 3.3-.6 3.9-2.1.6-1.6 1-3.6-1.2-4.8-4.1-1.8-8.4-.3-12.6-.9 0-.9 0-1.8-.1-2.7-.5-3.2.7-4.5 4-4.1 2.2.3 4.4.1 6.7 0 2.2-.1 3.6-1.2 3.7-3.7 0-2.4-1.2-3.7-3.5-3.7-5.1-.1-10.2 0-15.3 0-1 0-2.1.1-2.6 1.4-.2.6-.7 1.2-.7 1.7 0 10 .1 20 .1 30 0 2.2 1.6 3 3.3 3.1 5 .1 9.9.1 14.9 0 2.4-.1 3.8-1.5 3.7-4.1-.1-2.4-1.5-3.5-3.7-3.6-2.7-.1-5.5-.2-8.2 0-2.9.2-2.3-1.7-2.3-3.3-.2-1.4-.9-3.4 2.1-3.2zM71.7 102.3c-2.2 0-4.5-.2-6.7.1-3.3.4-3.8-1-3.7-3.9.2-6.7 0-13.4.1-20 0-1.9-.1-3.7-2.4-4.3-.8-.2-1.5-.3-2.2-.3-.1-.1-.2-.1-.4 0-.1 0-.2.1-.2.1-.4.1-.7.2-1 .5-1.3.9-1.7 2-1.7 2l.1 2.2.1.2c-.1 9.3-.1 18.6 0 28 0 2.4 1.8 3.4 4 3.4 4.7.1 9.4 0 14.1 0 2.5 0 4.1-1.4 4.1-3.7 0-2.7-1.4-4.4-4.2-4.3zM84.5 74c-2.1-.4-4.3-.5-4.9 2.4V107c.4 2.7 2.2 3.4 4.5 3 2.2-.4 3.1-2.1 3.1-4.3V78.2c.1-2.1-.5-3.8-2.7-4.2z"/></svg>
